<mxfile host="app.diagrams.net" modified="2024-05-31T15:33:50.247Z" agent="Mozilla/5.0 (Windows NT 10.0; Win64; x64) AppleWebKit/537.36 (KHTML, like Gecko) Chrome/122.0.0.0 Safari/537.36" etag="2JQsNjqwOOADYn3hcFwA" version="24.4.9" type="device">
  <diagram name="Page-1" id="H0sEk4mrWkG_-SpPmuGJ">
    <mxGraphModel dx="2400" dy="2198" grid="1" gridSize="10" guides="1" tooltips="1" connect="1" arrows="1" fold="1" page="1" pageScale="1" pageWidth="1169" pageHeight="827" math="0" shadow="0">
      <root>
        <mxCell id="0" />
        <mxCell id="1" parent="0" />
        <mxCell id="lsBvN1kzEUK-lstxM8mB-1" value="" style="rounded=0;whiteSpace=wrap;html=1;" vertex="1" parent="1">
          <mxGeometry y="3" width="1160" height="820" as="geometry" />
        </mxCell>
        <mxCell id="lsBvN1kzEUK-lstxM8mB-5" value="" style="rounded=0;whiteSpace=wrap;html=1;fillColor=#E6E6E6;fontColor=#333333;strokeColor=#666666;" vertex="1" parent="1">
          <mxGeometry y="53" width="280" height="770" as="geometry" />
        </mxCell>
        <mxCell id="lsBvN1kzEUK-lstxM8mB-4" value="" style="rounded=0;whiteSpace=wrap;html=1;fillColor=#E6E6E1;fontColor=#333333;strokeColor=#666666;" vertex="1" parent="1">
          <mxGeometry y="3" width="1160" height="50" as="geometry" />
        </mxCell>
        <mxCell id="lsBvN1kzEUK-lstxM8mB-6" value="" style="shape=mxgraph.sysml.x;" vertex="1" parent="1">
          <mxGeometry x="240" y="63" width="30" height="30" as="geometry" />
        </mxCell>
        <mxCell id="lsBvN1kzEUK-lstxM8mB-8" value="&lt;h2&gt;&lt;font size=&quot;1&quot; face=&quot;Verdana&quot; style=&quot;&quot;&gt;&lt;b style=&quot;font-size: 22px;&quot;&gt;Medical Consultation Player&lt;/b&gt;&lt;/font&gt;&lt;/h2&gt;" style="text;html=1;align=center;verticalAlign=middle;whiteSpace=wrap;rounded=0;" vertex="1" parent="1">
          <mxGeometry y="13" width="370" height="30" as="geometry" />
        </mxCell>
        <mxCell id="lsBvN1kzEUK-lstxM8mB-11" value="&lt;h2&gt;&lt;font size=&quot;1&quot;&gt;&lt;b style=&quot;font-size: 21px;&quot;&gt;Home&lt;/b&gt;&lt;/font&gt;&lt;/h2&gt;" style="rounded=1;whiteSpace=wrap;html=1;fillColor=#E6E6E6;fontColor=#333333;strokeColor=#666666;gradientColor=#CCCCCC;" vertex="1" parent="1">
          <mxGeometry y="103" width="280" height="60" as="geometry" />
        </mxCell>
        <mxCell id="lsBvN1kzEUK-lstxM8mB-12" value="&lt;h2&gt;&lt;font size=&quot;1&quot;&gt;&lt;b style=&quot;font-size: 21px;&quot;&gt;Consultations&lt;/b&gt;&lt;/font&gt;&lt;/h2&gt;" style="rounded=1;whiteSpace=wrap;html=1;fillColor=#E6E6E6;" vertex="1" parent="1">
          <mxGeometry y="163" width="280" height="60" as="geometry" />
        </mxCell>
        <mxCell id="lsBvN1kzEUK-lstxM8mB-13" value="&lt;h2&gt;&lt;font size=&quot;1&quot;&gt;&lt;b style=&quot;font-size: 21px;&quot;&gt;Settings&lt;/b&gt;&lt;/font&gt;&lt;/h2&gt;" style="rounded=1;whiteSpace=wrap;html=1;fillColor=#E6E6E6;" vertex="1" parent="1">
          <mxGeometry y="223" width="280" height="60" as="geometry" />
        </mxCell>
        <mxCell id="lsBvN1kzEUK-lstxM8mB-14" value="" style="sketch=0;pointerEvents=1;shadow=0;dashed=0;html=1;strokeColor=none;labelPosition=center;verticalLabelPosition=bottom;verticalAlign=top;align=center;fillColor=#505050;shape=mxgraph.mscae.enterprise.settings" vertex="1" parent="1">
          <mxGeometry x="1110" y="8.5" width="40" height="39" as="geometry" />
        </mxCell>
        <mxCell id="lsBvN1kzEUK-lstxM8mB-15" value="&lt;h1 style=&quot;margin-top: 0px;&quot;&gt;&lt;font style=&quot;font-size: 29px;&quot;&gt;Welcome to the Medical Consultation Audio Player!&lt;/font&gt;&lt;/h1&gt;&lt;div style=&quot;font-size: 24px;&quot;&gt;&lt;font style=&quot;font-size: 24px;&quot;&gt;Use the navigation tool on the left&lt;/font&gt;&lt;/div&gt;" style="text;html=1;whiteSpace=wrap;overflow=hidden;rounded=0;align=center;" vertex="1" parent="1">
          <mxGeometry x="440" y="352" width="570" height="130" as="geometry" />
        </mxCell>
        <mxCell id="lsBvN1kzEUK-lstxM8mB-17" value="" style="rounded=0;whiteSpace=wrap;html=1;" vertex="1" parent="1">
          <mxGeometry x="1174" y="3" width="1160" height="820" as="geometry" />
        </mxCell>
        <mxCell id="lsBvN1kzEUK-lstxM8mB-18" value="" style="rounded=0;whiteSpace=wrap;html=1;fillColor=#E6E6E6;fontColor=#333333;strokeColor=#666666;" vertex="1" parent="1">
          <mxGeometry x="1174" y="53" width="280" height="770" as="geometry" />
        </mxCell>
        <mxCell id="lsBvN1kzEUK-lstxM8mB-19" value="" style="rounded=0;whiteSpace=wrap;html=1;fillColor=#E6E6E1;fontColor=#333333;strokeColor=#666666;" vertex="1" parent="1">
          <mxGeometry x="1174" y="3" width="1160" height="50" as="geometry" />
        </mxCell>
        <mxCell id="lsBvN1kzEUK-lstxM8mB-20" value="" style="shape=mxgraph.sysml.x;" vertex="1" parent="1">
          <mxGeometry x="1414" y="63" width="30" height="30" as="geometry" />
        </mxCell>
        <mxCell id="lsBvN1kzEUK-lstxM8mB-21" value="&lt;h2&gt;&lt;font size=&quot;1&quot; face=&quot;Verdana&quot; style=&quot;&quot;&gt;&lt;b style=&quot;font-size: 22px;&quot;&gt;Medical Consultation Player&lt;/b&gt;&lt;/font&gt;&lt;/h2&gt;" style="text;html=1;align=center;verticalAlign=middle;whiteSpace=wrap;rounded=0;" vertex="1" parent="1">
          <mxGeometry x="1174" y="13" width="370" height="30" as="geometry" />
        </mxCell>
        <mxCell id="lsBvN1kzEUK-lstxM8mB-22" value="&lt;h2&gt;&lt;font size=&quot;1&quot;&gt;&lt;b style=&quot;font-size: 21px;&quot;&gt;Home&lt;/b&gt;&lt;/font&gt;&lt;/h2&gt;" style="rounded=1;whiteSpace=wrap;html=1;fillColor=#E6E6E6;fontColor=#333333;strokeColor=#666666;" vertex="1" parent="1">
          <mxGeometry x="1174" y="103" width="280" height="60" as="geometry" />
        </mxCell>
        <mxCell id="lsBvN1kzEUK-lstxM8mB-23" value="&lt;h2&gt;&lt;font size=&quot;1&quot;&gt;&lt;b style=&quot;font-size: 21px;&quot;&gt;Consultations&lt;/b&gt;&lt;/font&gt;&lt;/h2&gt;" style="rounded=1;whiteSpace=wrap;html=1;fillColor=#E6E6E6;gradientColor=#CCCCCC;" vertex="1" parent="1">
          <mxGeometry x="1174" y="163" width="280" height="60" as="geometry" />
        </mxCell>
        <mxCell id="lsBvN1kzEUK-lstxM8mB-24" value="&lt;h2&gt;&lt;font size=&quot;1&quot;&gt;&lt;b style=&quot;font-size: 21px;&quot;&gt;Settings&lt;/b&gt;&lt;/font&gt;&lt;/h2&gt;" style="rounded=1;whiteSpace=wrap;html=1;fillColor=#E6E6E6;" vertex="1" parent="1">
          <mxGeometry x="1174" y="223" width="280" height="60" as="geometry" />
        </mxCell>
        <mxCell id="lsBvN1kzEUK-lstxM8mB-25" value="" style="sketch=0;pointerEvents=1;shadow=0;dashed=0;html=1;strokeColor=none;labelPosition=center;verticalLabelPosition=bottom;verticalAlign=top;align=center;fillColor=#505050;shape=mxgraph.mscae.enterprise.settings" vertex="1" parent="1">
          <mxGeometry x="2284" y="8.5" width="40" height="39" as="geometry" />
        </mxCell>
        <mxCell id="lsBvN1kzEUK-lstxM8mB-27" value="&lt;h1&gt;Home Page&amp;nbsp;&lt;/h1&gt;" style="text;html=1;align=center;verticalAlign=middle;whiteSpace=wrap;rounded=0;" vertex="1" parent="1">
          <mxGeometry x="525" y="-40" width="155" height="30" as="geometry" />
        </mxCell>
        <mxCell id="lsBvN1kzEUK-lstxM8mB-48" value="&lt;h1&gt;Consultations Page&lt;/h1&gt;" style="text;html=1;align=center;verticalAlign=middle;whiteSpace=wrap;rounded=0;" vertex="1" parent="1">
          <mxGeometry x="1710" y="-40" width="240" height="30" as="geometry" />
        </mxCell>
        <mxCell id="lsBvN1kzEUK-lstxM8mB-65" value="" style="rounded=0;whiteSpace=wrap;html=1;" vertex="1" parent="1">
          <mxGeometry x="1530" y="161.38" width="726" height="523" as="geometry" />
        </mxCell>
        <mxCell id="lsBvN1kzEUK-lstxM8mB-66" value="&lt;font style=&quot;font-size: 23px;&quot;&gt;&lt;span style=&quot;white-space: pre;&quot;&gt;&#x9;&lt;/span&gt;File Name&lt;/font&gt;" style="rounded=0;whiteSpace=wrap;html=1;align=left;" vertex="1" parent="1">
          <mxGeometry x="1530" y="654.38" width="726" height="30" as="geometry" />
        </mxCell>
        <mxCell id="lsBvN1kzEUK-lstxM8mB-70" value="&lt;h1&gt;Consulations&lt;/h1&gt;" style="text;html=1;align=center;verticalAlign=middle;whiteSpace=wrap;rounded=0;" vertex="1" parent="1">
          <mxGeometry x="1520" y="63" width="60" height="30" as="geometry" />
        </mxCell>
        <mxCell id="lsBvN1kzEUK-lstxM8mB-72" value="&lt;h2&gt;Type:&amp;nbsp; Doctor - Robot - Patient&lt;/h2&gt;" style="text;html=1;align=center;verticalAlign=middle;whiteSpace=wrap;rounded=0;" vertex="1" parent="1">
          <mxGeometry x="1530" y="131.38" width="276" height="30" as="geometry" />
        </mxCell>
        <mxCell id="lsBvN1kzEUK-lstxM8mB-74" value="" style="shape=image;html=1;verticalAlign=top;verticalLabelPosition=bottom;labelBackgroundColor=#ffffff;imageAspect=0;aspect=fixed;image=https://cdn2.iconfinder.com/data/icons/navigation-set-arrows-part-two/32/Arrow_Drop_Down-128.png" vertex="1" parent="1">
          <mxGeometry x="2207" y="644.63" width="49.5" height="49.5" as="geometry" />
        </mxCell>
        <mxCell id="lsBvN1kzEUK-lstxM8mB-77" value="Doctor - Robot Patient" style="rounded=1;whiteSpace=wrap;html=1;fillColor=#dae8fc;strokeColor=#6c8ebf;" vertex="1" parent="1">
          <mxGeometry x="2166.5" y="694.13" width="90" height="50.5" as="geometry" />
        </mxCell>
        <mxCell id="lsBvN1kzEUK-lstxM8mB-78" value="Robot - Patient" style="rounded=1;whiteSpace=wrap;html=1;fillColor=#dae8fc;strokeColor=#6c8ebf;" vertex="1" parent="1">
          <mxGeometry x="2066.5" y="694.13" width="90" height="50.5" as="geometry" />
        </mxCell>
        <mxCell id="lsBvN1kzEUK-lstxM8mB-79" value="Doctor - Patient" style="rounded=1;whiteSpace=wrap;html=1;fillColor=#dae8fc;strokeColor=#6c8ebf;" vertex="1" parent="1">
          <mxGeometry x="1966.5" y="694.13" width="90" height="50.5" as="geometry" />
        </mxCell>
        <mxCell id="lsBvN1kzEUK-lstxM8mB-81" value="" style="rounded=1;whiteSpace=wrap;html=1;" vertex="1" parent="1">
          <mxGeometry x="1530" y="584.38" width="726" height="70" as="geometry" />
        </mxCell>
        <mxCell id="lsBvN1kzEUK-lstxM8mB-82" value="" style="dashed=0;verticalLabelPosition=bottom;verticalAlign=top;align=center;shape=mxgraph.gmdl.slider2;barPos=42.92;strokeColor=#3F51B5;opacity=100;strokeWidth=8;fillColor=#3F51B5;handleSize=10;shadow=0;html=1;perimeterSpacing=21;" vertex="1" parent="1">
          <mxGeometry x="1586" y="594.38" width="620" height="10" as="geometry" />
        </mxCell>
        <mxCell id="lsBvN1kzEUK-lstxM8mB-83" value="0:00" style="text;html=1;align=center;verticalAlign=middle;whiteSpace=wrap;rounded=0;" vertex="1" parent="1">
          <mxGeometry x="1530" y="584.38" width="60" height="30" as="geometry" />
        </mxCell>
        <mxCell id="lsBvN1kzEUK-lstxM8mB-84" value="15:00" style="text;html=1;align=center;verticalAlign=middle;whiteSpace=wrap;rounded=0;" vertex="1" parent="1">
          <mxGeometry x="2196.5" y="584.38" width="60" height="30" as="geometry" />
        </mxCell>
        <mxCell id="lsBvN1kzEUK-lstxM8mB-86" value="" style="sketch=0;html=1;aspect=fixed;strokeColor=none;shadow=0;fillColor=#3B8DF1;verticalAlign=top;labelPosition=center;verticalLabelPosition=bottom;shape=mxgraph.gcp2.play_start" vertex="1" parent="1">
          <mxGeometry x="1545" y="614.88" width="30" height="30" as="geometry" />
        </mxCell>
        <mxCell id="lsBvN1kzEUK-lstxM8mB-90" value="" style="html=1;verticalLabelPosition=bottom;labelBackgroundColor=#ffffff;verticalAlign=top;shadow=0;dashed=0;strokeWidth=3;shape=mxgraph.ios7.misc.pause;strokeColor=#0080f0;sketch=0;" vertex="1" parent="1">
          <mxGeometry x="1586" y="614.88" width="30" height="30" as="geometry" />
        </mxCell>
        <mxCell id="lsBvN1kzEUK-lstxM8mB-91" value="" style="ellipse;whiteSpace=wrap;html=1;aspect=fixed;strokeColor=#3B8DF1;strokeWidth=3;" vertex="1" parent="1">
          <mxGeometry x="1626" y="614.88" width="30" height="30" as="geometry" />
        </mxCell>
        <mxCell id="lsBvN1kzEUK-lstxM8mB-92" value="" style="whiteSpace=wrap;html=1;aspect=fixed;fillColor=#3B8DF1;strokeColor=none;" vertex="1" parent="1">
          <mxGeometry x="1633.5" y="622.38" width="15" height="15" as="geometry" />
        </mxCell>
        <mxCell id="lsBvN1kzEUK-lstxM8mB-93" value="Toggle Chat" style="rounded=1;whiteSpace=wrap;html=1;fillColor=#d5e8d4;strokeColor=#82b366;" vertex="1" parent="1">
          <mxGeometry x="2126" y="617.63" width="80" height="24.5" as="geometry" />
        </mxCell>
        <mxCell id="lsBvN1kzEUK-lstxM8mB-94" value="" style="shape=image;html=1;verticalAlign=top;verticalLabelPosition=bottom;labelBackgroundColor=#ffffff;imageAspect=0;aspect=fixed;image=https://cdn4.iconfinder.com/data/icons/medical-14/512/9-128.png;imageBackground=none;" vertex="1" parent="1">
          <mxGeometry x="1546" y="174.38" width="40" height="40" as="geometry" />
        </mxCell>
        <mxCell id="lsBvN1kzEUK-lstxM8mB-95" value="" style="html=1;verticalLabelPosition=bottom;align=center;labelBackgroundColor=#ffffff;verticalAlign=top;strokeWidth=2;strokeColor=#0080F0;shadow=0;dashed=0;shape=mxgraph.ios7.icons.message;flipH=1;" vertex="1" parent="1">
          <mxGeometry x="1590" y="174.38" width="636" height="40" as="geometry" />
        </mxCell>
        <mxCell id="lsBvN1kzEUK-lstxM8mB-96" value="&lt;font style=&quot;font-size: 15px;&quot;&gt;Hello, my name is Pepper, and I&#39;m a robot nurse working on the ward&lt;/font&gt;" style="text;html=1;align=center;verticalAlign=middle;whiteSpace=wrap;rounded=0;" vertex="1" parent="1">
          <mxGeometry x="1588.5" y="174.38" width="637.5" height="30" as="geometry" />
        </mxCell>
        <mxCell id="lsBvN1kzEUK-lstxM8mB-97" value="" style="shape=image;html=1;verticalAlign=top;verticalLabelPosition=bottom;labelBackgroundColor=#ffffff;imageAspect=0;aspect=fixed;image=https://cdn1.iconfinder.com/data/icons/science-technology-outline-24-px/24/Android_android_robot_operative_system_robot_technology-128.png;fontColor=#99FFCC;imageBorder=none;flipH=1;" vertex="1" parent="1">
          <mxGeometry x="1545" y="219.38" width="40" height="40" as="geometry" />
        </mxCell>
        <mxCell id="lsBvN1kzEUK-lstxM8mB-98" value="" style="html=1;verticalLabelPosition=bottom;align=center;labelBackgroundColor=#ffffff;verticalAlign=top;strokeWidth=2;strokeColor=#FF3333;shadow=0;dashed=0;shape=mxgraph.ios7.icons.message;flipH=1;" vertex="1" parent="1">
          <mxGeometry x="1590" y="224.38" width="636" height="40" as="geometry" />
        </mxCell>
        <mxCell id="lsBvN1kzEUK-lstxM8mB-99" value="&lt;font style=&quot;font-size: 15px;&quot;&gt;Hello, my name is Pepper, and I&#39;m over, but a nurse working&lt;/font&gt;" style="text;html=1;align=center;verticalAlign=middle;whiteSpace=wrap;rounded=0;flipH=1;" vertex="1" parent="1">
          <mxGeometry x="1588.5" y="224.38" width="637.5" height="30" as="geometry" />
        </mxCell>
        <mxCell id="lsBvN1kzEUK-lstxM8mB-109" value="" style="shape=actor;whiteSpace=wrap;html=1;" vertex="1" parent="1">
          <mxGeometry x="2196.5" y="264.38" width="29.5" height="40" as="geometry" />
        </mxCell>
        <mxCell id="lsBvN1kzEUK-lstxM8mB-110" value="" style="html=1;verticalLabelPosition=bottom;align=center;labelBackgroundColor=#ffffff;verticalAlign=top;strokeWidth=2;strokeColor=#B9E0A5;shadow=0;dashed=0;shape=mxgraph.ios7.icons.message;flipH=0;" vertex="1" parent="1">
          <mxGeometry x="1550" y="274.38" width="636" height="40" as="geometry" />
        </mxCell>
        <mxCell id="lsBvN1kzEUK-lstxM8mB-111" value="&lt;span style=&quot;font-size: 15px;&quot;&gt;{...}&lt;/span&gt;" style="text;html=1;align=center;verticalAlign=middle;whiteSpace=wrap;rounded=0;flipH=0;" vertex="1" parent="1">
          <mxGeometry x="1548.5" y="274.38" width="637.5" height="30" as="geometry" />
        </mxCell>
        <mxCell id="lsBvN1kzEUK-lstxM8mB-112" value="" style="shape=image;html=1;verticalAlign=top;verticalLabelPosition=bottom;labelBackgroundColor=#ffffff;imageAspect=0;aspect=fixed;image=https://cdn4.iconfinder.com/data/icons/medical-14/512/9-128.png;imageBackground=none;" vertex="1" parent="1">
          <mxGeometry x="1543.5" y="324.38" width="40" height="40" as="geometry" />
        </mxCell>
        <mxCell id="lsBvN1kzEUK-lstxM8mB-113" value="" style="html=1;verticalLabelPosition=bottom;align=center;labelBackgroundColor=#ffffff;verticalAlign=top;strokeWidth=2;strokeColor=#0080F0;shadow=0;dashed=0;shape=mxgraph.ios7.icons.message;flipH=1;" vertex="1" parent="1">
          <mxGeometry x="1587.5" y="324.38" width="636" height="40" as="geometry" />
        </mxCell>
        <mxCell id="lsBvN1kzEUK-lstxM8mB-114" value="&lt;font style=&quot;font-size: 15px;&quot;&gt;Could you please confirm your name and date of birth?&lt;/font&gt;" style="text;html=1;align=center;verticalAlign=middle;whiteSpace=wrap;rounded=0;" vertex="1" parent="1">
          <mxGeometry x="1586" y="324.38" width="637.5" height="30" as="geometry" />
        </mxCell>
        <mxCell id="lsBvN1kzEUK-lstxM8mB-115" value="" style="shape=image;html=1;verticalAlign=top;verticalLabelPosition=bottom;labelBackgroundColor=#ffffff;imageAspect=0;aspect=fixed;image=https://cdn1.iconfinder.com/data/icons/science-technology-outline-24-px/24/Android_android_robot_operative_system_robot_technology-128.png;fontColor=#99FFCC;imageBorder=none;flipH=1;" vertex="1" parent="1">
          <mxGeometry x="1542.5" y="369.38" width="40" height="40" as="geometry" />
        </mxCell>
        <mxCell id="lsBvN1kzEUK-lstxM8mB-116" value="" style="html=1;verticalLabelPosition=bottom;align=center;labelBackgroundColor=#ffffff;verticalAlign=top;strokeWidth=2;strokeColor=#FF3333;shadow=0;dashed=0;shape=mxgraph.ios7.icons.message;flipH=1;" vertex="1" parent="1">
          <mxGeometry x="1587.5" y="374.38" width="636" height="40" as="geometry" />
        </mxCell>
        <mxCell id="lsBvN1kzEUK-lstxM8mB-117" value="&lt;font style=&quot;font-size: 15px;&quot;&gt;Could you please confirm your name and date of birth?&lt;/font&gt;" style="text;html=1;align=center;verticalAlign=middle;whiteSpace=wrap;rounded=0;flipH=1;" vertex="1" parent="1">
          <mxGeometry x="1586" y="374.38" width="637.5" height="30" as="geometry" />
        </mxCell>
        <mxCell id="lsBvN1kzEUK-lstxM8mB-118" value="" style="shape=actor;whiteSpace=wrap;html=1;" vertex="1" parent="1">
          <mxGeometry x="2196.5" y="414.38" width="29.5" height="40" as="geometry" />
        </mxCell>
        <mxCell id="lsBvN1kzEUK-lstxM8mB-119" value="" style="html=1;verticalLabelPosition=bottom;align=center;labelBackgroundColor=#ffffff;verticalAlign=top;strokeWidth=2;strokeColor=#B9E0A5;shadow=0;dashed=0;shape=mxgraph.ios7.icons.message;flipH=0;" vertex="1" parent="1">
          <mxGeometry x="1550" y="424.38" width="636" height="40" as="geometry" />
        </mxCell>
        <mxCell id="lsBvN1kzEUK-lstxM8mB-120" value="&lt;span style=&quot;font-size: 15px;&quot;&gt;Alice Taylor, 1st of January 2001.&lt;/span&gt;" style="text;html=1;align=center;verticalAlign=middle;whiteSpace=wrap;rounded=0;flipH=0;" vertex="1" parent="1">
          <mxGeometry x="1548.5" y="424.38" width="637.5" height="30" as="geometry" />
        </mxCell>
        <mxCell id="lsBvN1kzEUK-lstxM8mB-126" value="" style="shape=image;html=1;verticalAlign=top;verticalLabelPosition=bottom;labelBackgroundColor=#ffffff;imageAspect=0;aspect=fixed;image=https://cdn4.iconfinder.com/data/icons/medical-14/512/9-128.png;imageBackground=none;" vertex="1" parent="1">
          <mxGeometry x="1543.5" y="474.38" width="40" height="40" as="geometry" />
        </mxCell>
        <mxCell id="lsBvN1kzEUK-lstxM8mB-127" value="" style="html=1;verticalLabelPosition=bottom;align=center;labelBackgroundColor=#ffffff;verticalAlign=top;strokeWidth=2;strokeColor=#0080F0;shadow=0;dashed=0;shape=mxgraph.ios7.icons.message;flipH=1;" vertex="1" parent="1">
          <mxGeometry x="1587.5" y="474.38" width="636" height="40" as="geometry" />
        </mxCell>
        <mxCell id="lsBvN1kzEUK-lstxM8mB-128" value="&lt;font style=&quot;font-size: 15px;&quot;&gt;Thank you.&lt;/font&gt;" style="text;html=1;align=center;verticalAlign=middle;whiteSpace=wrap;rounded=0;" vertex="1" parent="1">
          <mxGeometry x="1586" y="474.38" width="637.5" height="30" as="geometry" />
        </mxCell>
        <mxCell id="lsBvN1kzEUK-lstxM8mB-129" value="" style="shape=image;html=1;verticalAlign=top;verticalLabelPosition=bottom;labelBackgroundColor=#ffffff;imageAspect=0;aspect=fixed;image=https://cdn1.iconfinder.com/data/icons/science-technology-outline-24-px/24/Android_android_robot_operative_system_robot_technology-128.png;fontColor=#99FFCC;imageBorder=none;flipH=1;" vertex="1" parent="1">
          <mxGeometry x="1542.5" y="519.38" width="40" height="40" as="geometry" />
        </mxCell>
        <mxCell id="lsBvN1kzEUK-lstxM8mB-130" value="" style="html=1;verticalLabelPosition=bottom;align=center;labelBackgroundColor=#ffffff;verticalAlign=top;strokeWidth=2;strokeColor=#FF3333;shadow=0;dashed=0;shape=mxgraph.ios7.icons.message;flipH=1;" vertex="1" parent="1">
          <mxGeometry x="1587.5" y="524.38" width="636" height="40" as="geometry" />
        </mxCell>
        <mxCell id="lsBvN1kzEUK-lstxM8mB-131" value="&lt;font style=&quot;font-size: 15px;&quot;&gt;Thank you.&lt;/font&gt;" style="text;html=1;align=center;verticalAlign=middle;whiteSpace=wrap;rounded=0;flipH=1;" vertex="1" parent="1">
          <mxGeometry x="1586" y="524.38" width="637.5" height="30" as="geometry" />
        </mxCell>
        <mxCell id="lsBvN1kzEUK-lstxM8mB-132" value="" style="verticalLabelPosition=bottom;shadow=0;dashed=0;align=center;html=1;verticalAlign=top;strokeWidth=1;shape=mxgraph.mockup.navigation.scrollBar;strokeColor=#999999;barPos=100;fillColor2=#99ddff;strokeColor2=none;direction=north;" vertex="1" parent="1">
          <mxGeometry x="2236" y="161.38" width="20" height="423" as="geometry" />
        </mxCell>
        <mxCell id="lsBvN1kzEUK-lstxM8mB-186" value="" style="rounded=0;whiteSpace=wrap;html=1;" vertex="1" parent="1">
          <mxGeometry x="2343" y="2.879999999999999" width="1160" height="820" as="geometry" />
        </mxCell>
        <mxCell id="lsBvN1kzEUK-lstxM8mB-187" value="" style="rounded=0;whiteSpace=wrap;html=1;fillColor=#E6E6E6;fontColor=#333333;strokeColor=#666666;" vertex="1" parent="1">
          <mxGeometry x="2343" y="52.879999999999995" width="280" height="770" as="geometry" />
        </mxCell>
        <mxCell id="lsBvN1kzEUK-lstxM8mB-188" value="" style="rounded=0;whiteSpace=wrap;html=1;fillColor=#E6E6E1;fontColor=#333333;strokeColor=#666666;" vertex="1" parent="1">
          <mxGeometry x="2343" y="2.879999999999999" width="1160" height="50" as="geometry" />
        </mxCell>
        <mxCell id="lsBvN1kzEUK-lstxM8mB-189" value="" style="shape=mxgraph.sysml.x;" vertex="1" parent="1">
          <mxGeometry x="2583" y="62.88" width="30" height="30" as="geometry" />
        </mxCell>
        <mxCell id="lsBvN1kzEUK-lstxM8mB-190" value="&lt;h2&gt;&lt;font size=&quot;1&quot; face=&quot;Verdana&quot; style=&quot;&quot;&gt;&lt;b style=&quot;font-size: 22px;&quot;&gt;Medical Consultation Player&lt;/b&gt;&lt;/font&gt;&lt;/h2&gt;" style="text;html=1;align=center;verticalAlign=middle;whiteSpace=wrap;rounded=0;" vertex="1" parent="1">
          <mxGeometry x="2343" y="12.879999999999999" width="370" height="30" as="geometry" />
        </mxCell>
        <mxCell id="lsBvN1kzEUK-lstxM8mB-191" value="&lt;h2&gt;&lt;font size=&quot;1&quot;&gt;&lt;b style=&quot;font-size: 21px;&quot;&gt;Home&lt;/b&gt;&lt;/font&gt;&lt;/h2&gt;" style="rounded=1;whiteSpace=wrap;html=1;fillColor=#E6E6E6;fontColor=#333333;strokeColor=#666666;" vertex="1" parent="1">
          <mxGeometry x="2343" y="102.88" width="280" height="60" as="geometry" />
        </mxCell>
        <mxCell id="lsBvN1kzEUK-lstxM8mB-192" value="&lt;h2&gt;&lt;font size=&quot;1&quot;&gt;&lt;b style=&quot;font-size: 21px;&quot;&gt;Consultations&lt;/b&gt;&lt;/font&gt;&lt;/h2&gt;" style="rounded=1;whiteSpace=wrap;html=1;fillColor=#E6E6E6;gradientColor=none;" vertex="1" parent="1">
          <mxGeometry x="2343" y="162.88" width="280" height="60" as="geometry" />
        </mxCell>
        <mxCell id="lsBvN1kzEUK-lstxM8mB-193" value="&lt;h2&gt;&lt;font size=&quot;1&quot;&gt;&lt;b style=&quot;font-size: 21px;&quot;&gt;Settings&lt;/b&gt;&lt;/font&gt;&lt;/h2&gt;" style="rounded=1;whiteSpace=wrap;html=1;fillColor=#E6E6E6;gradientColor=#CCCCCC;" vertex="1" parent="1">
          <mxGeometry x="2343" y="222.88" width="280" height="60" as="geometry" />
        </mxCell>
        <mxCell id="lsBvN1kzEUK-lstxM8mB-194" value="" style="sketch=0;pointerEvents=1;shadow=0;dashed=0;html=1;strokeColor=none;labelPosition=center;verticalLabelPosition=bottom;verticalAlign=top;align=center;fillColor=#505050;shape=mxgraph.mscae.enterprise.settings" vertex="1" parent="1">
          <mxGeometry x="3453" y="8.379999999999999" width="40" height="39" as="geometry" />
        </mxCell>
        <mxCell id="lsBvN1kzEUK-lstxM8mB-195" value="&lt;h1&gt;Settings Page&lt;/h1&gt;" style="text;html=1;align=center;verticalAlign=middle;whiteSpace=wrap;rounded=0;" vertex="1" parent="1">
          <mxGeometry x="2879" y="-40.120000000000005" width="240" height="30" as="geometry" />
        </mxCell>
        <mxCell id="lsBvN1kzEUK-lstxM8mB-198" value="&lt;h1&gt;Settings&lt;/h1&gt;" style="text;html=1;align=center;verticalAlign=middle;whiteSpace=wrap;rounded=0;" vertex="1" parent="1">
          <mxGeometry x="2689" y="62.88" width="60" height="30" as="geometry" />
        </mxCell>
        <mxCell id="lsBvN1kzEUK-lstxM8mB-199" value="&lt;h2&gt;Audio Playback Device&lt;/h2&gt;" style="text;html=1;align=left;verticalAlign=middle;whiteSpace=wrap;rounded=0;" vertex="1" parent="1">
          <mxGeometry x="2699" y="131.26" width="276" height="30" as="geometry" />
        </mxCell>
        <mxCell id="lsBvN1kzEUK-lstxM8mB-238" value="Dropdown button" style="rounded=1;fillColor=#F1F2F4;strokeColor=none;html=1;whiteSpace=wrap;fontColor=#596780;align=left;fontSize=12;spacingLeft=10;sketch=0;" vertex="1" parent="1">
          <mxGeometry x="2699" y="162.88" width="721" height="33" as="geometry" />
        </mxCell>
        <mxCell id="lsBvN1kzEUK-lstxM8mB-239" value="" style="shape=triangle;direction=south;fillColor=#596780;strokeColor=none;html=1;sketch=0;" vertex="1" parent="lsBvN1kzEUK-lstxM8mB-238">
          <mxGeometry x="1" y="0.5" width="12" height="6" relative="1" as="geometry">
            <mxPoint x="-20" y="-3" as="offset" />
          </mxGeometry>
        </mxCell>
        <mxCell id="lsBvN1kzEUK-lstxM8mB-240" value="&lt;h2&gt;Theme&lt;/h2&gt;" style="text;html=1;align=left;verticalAlign=middle;whiteSpace=wrap;rounded=0;" vertex="1" parent="1">
          <mxGeometry x="2699" y="214.38" width="276" height="30" as="geometry" />
        </mxCell>
        <mxCell id="lsBvN1kzEUK-lstxM8mB-243" value="&lt;b&gt;&lt;font color=&quot;#000000&quot;&gt;Light Mode&lt;/font&gt;&lt;/b&gt;" style="rounded=1;html=1;shadow=0;dashed=0;whiteSpace=wrap;fontSize=10;fillColor=#E6E6E6;align=center;strokeColor=#4D4D4D;fontColor=#ffffff;" vertex="1" parent="1">
          <mxGeometry x="2699" y="257.5" width="114" height="30" as="geometry" />
        </mxCell>
        <mxCell id="lsBvN1kzEUK-lstxM8mB-244" value="Dark Mode" style="rounded=1;html=1;shadow=0;dashed=0;whiteSpace=wrap;fontSize=10;fillColor=#666666;align=center;strokeColor=#4D4D4D;fontColor=#ffffff;" vertex="1" parent="1">
          <mxGeometry x="2850" y="257.5" width="114" height="30" as="geometry" />
        </mxCell>
        <mxCell id="lsBvN1kzEUK-lstxM8mB-246" value="&lt;b&gt;&lt;font style=&quot;font-size: 18px;&quot; color=&quot;#000000&quot;&gt;Save&lt;/font&gt;&lt;/b&gt;" style="rounded=1;html=1;shadow=0;dashed=0;whiteSpace=wrap;fontSize=10;fillColor=#d5e8d4;align=center;strokeColor=#82b366;" vertex="1" parent="1">
          <mxGeometry x="3306" y="704.38" width="114" height="30" as="geometry" />
        </mxCell>
      </root>
    </mxGraphModel>
  </diagram>
</mxfile>
